<svg width="47" height="47" viewBox="0 0 47 47" fill="none" xmlns="http://www.w3.org/2000/svg">
<path d="M9.91 1H36.64C41.56 1 45.55 4.99 45.55 9.91V36.64C45.55 41.56 41.56 45.55 36.64 45.55H9.91C4.99 45.55 1 41.56 1 36.64V9.91C1 4.99 4.99 1 9.91 1Z" stroke="black" stroke-width="2" stroke-miterlimit="10"/>
<path d="M18.6701 24.05C17.7801 24.05 16.9901 24.03 16.1901 24.05C15.6801 24.07 15.4601 23.88 15.4701 23.35C15.4901 21.77 15.4901 20.18 15.4701 18.6C15.4701 18.09 15.6401 17.87 16.1701 17.89C16.9701 17.92 17.7701 17.89 18.6701 17.89C18.6701 17.6 18.6701 17.36 18.6701 17.11C18.6901 15.63 18.5801 14.14 18.7701 12.69C19.1401 9.84001 21.0301 7.95001 23.8901 7.68001C26.0701 7.47001 28.2701 7.56001 30.4601 7.51001C30.8401 7.51001 30.9701 7.73001 30.9701 8.08001C30.9701 9.81001 30.9701 11.54 30.9701 13.27C30.9701 13.73 30.7001 13.84 30.3101 13.84C29.3001 13.84 28.2801 13.84 27.2701 13.84C26.3701 13.84 26.0101 14.22 26.0101 15.11C26.0101 16.01 26.0101 16.92 26.0101 17.89C27.3901 17.89 28.7201 17.89 30.0401 17.89C30.9301 17.89 30.9601 17.9 30.8701 18.77C30.7101 20.3 30.5201 21.83 30.3701 23.36C30.3201 23.84 30.1201 24.01 29.6401 24C28.4601 23.98 27.2801 24 26.0101 24C26.0101 24.28 26.0101 24.52 26.0101 24.76C26.0101 29.44 26.0101 34.13 26.0101 38.81C26.0101 39.67 25.9701 39.71 25.1201 39.71C23.2401 39.71 21.3601 39.71 19.4901 39.71C18.7001 39.71 18.6601 39.68 18.6601 38.89C18.6601 34.23 18.6601 29.56 18.6601 24.9C18.6601 24.65 18.6601 24.4 18.6601 24.04L18.6701 24.05ZM30.1401 8.24001C28.0401 8.32001 25.9601 8.24001 23.9301 8.52001C21.0701 8.94001 19.6501 10.72 19.5501 13.61C19.5001 15.04 19.5401 16.48 19.5301 17.92C19.5301 18.67 19.4401 18.76 18.7001 18.76C17.9301 18.76 17.1601 18.76 16.3301 18.76C16.3301 20.19 16.3201 21.52 16.3501 22.84C16.3501 22.96 16.6301 23.16 16.8001 23.17C17.3901 23.21 17.9801 23.19 18.5701 23.19C19.5001 23.19 19.5301 23.22 19.5301 24.15C19.5301 28.82 19.5301 33.48 19.5301 38.15C19.5301 38.39 19.5501 38.64 19.5701 38.88H25.1501V38.08C25.1501 33.39 25.1501 28.71 25.1501 24.02C25.1501 23.25 25.2001 23.2 25.9801 23.2C27.1601 23.2 28.3401 23.2 29.6001 23.2C29.7801 21.69 29.9601 20.22 30.1401 18.7C28.6401 18.7 27.2701 18.69 25.9001 18.7C25.3901 18.7 25.1701 18.52 25.1801 18C25.2001 17.14 25.1801 16.27 25.1801 15.4C25.1801 13.71 25.8801 13.01 27.5501 13.01C28.4101 13.01 29.2601 13.01 30.1301 13.01V8.23001L30.1401 8.24001Z" stroke="black" stroke-width="1.2" stroke-miterlimit="10"/>
</svg>
