<svg width="20.000000" height="41.000000" viewBox="0 0 20 41" fill="none" xmlns="http://www.w3.org/2000/svg" xmlns:xlink="http://www.w3.org/1999/xlink">
	<desc>
			Created with Pixso.
	</desc>
	<defs/>
	<path id="Vector (Stroke)" d="M18.37 -0.6C18.72 -0.6 19.08 -0.5 19.33 -0.19C19.55 0.09 19.6 0.43 19.6 0.7L19.6 7.15C19.6 7.55 19.47 7.95 19.13 8.2C18.82 8.43 18.46 8.46 18.19 8.46L14.46 8.46C13.98 8.46 13.79 8.56 13.7 8.65C13.62 8.74 13.52 8.94 13.52 9.44L13.52 12.29L17.86 12.29C18.12 12.29 18.36 12.29 18.56 12.31C18.75 12.33 19.03 12.39 19.25 12.62C19.47 12.85 19.51 13.14 19.51 13.34C19.52 13.54 19.5 13.78 19.47 14.04C19.38 14.87 19.29 15.69 19.2 16.5C19.08 17.58 18.96 18.66 18.86 19.74L18.86 19.75C18.82 20.1 18.72 20.49 18.41 20.76C18.1 21.03 17.7 21.09 17.35 21.08C16.4 21.06 15.46 21.07 14.48 21.07C14.16 21.08 13.84 21.08 13.52 21.08L13.52 38.88C13.52 39.14 13.51 39.38 13.49 39.58C13.46 39.78 13.4 40.05 13.19 40.26C12.98 40.47 12.72 40.54 12.52 40.56C12.32 40.59 12.08 40.59 11.82 40.59L4.92 40.59C4.69 40.59 4.46 40.59 4.28 40.57C4.09 40.54 3.83 40.48 3.63 40.28C3.42 40.08 3.36 39.82 3.33 39.63C3.31 39.44 3.31 39.21 3.31 38.98L3.31 21.14C3.14 21.14 2.98 21.14 2.82 21.14C2.15 21.13 1.53 21.13 0.9 21.14C0.53 21.16 0.1 21.1 -0.22 20.8C-0.54 20.48 -0.61 20.05 -0.6 19.66C-0.58 17.71 -0.58 15.74 -0.6 13.78L-0.6 13.77C-0.6 13.42 -0.55 13 -0.26 12.68C0.05 12.34 0.49 12.28 0.88 12.29C1.51 12.31 2.13 12.31 2.8 12.3C2.97 12.3 3.14 12.29 3.32 12.29L3.32 11.91C3.32 11.39 3.32 10.85 3.31 10.31C3.29 9 3.28 7.65 3.45 6.35C3.69 4.47 4.43 2.87 5.61 1.69C6.79 0.51 8.38 -0.21 10.26 -0.39C12.11 -0.57 13.99 -0.58 15.84 -0.58C16.69 -0.58 17.53 -0.59 18.36 -0.6L18.37 -0.6ZM0.6 19.45C0.6 19.53 0.6 19.6 0.6 19.68L0.6 19.68C0.59 19.83 0.61 19.9 0.62 19.93C0.65 19.93 0.72 19.95 0.85 19.94L0.86 19.94C0.97 19.94 1.07 19.94 1.18 19.94C1.08 19.89 0.99 19.83 0.92 19.78C0.83 19.71 0.74 19.63 0.66 19.54C0.64 19.52 0.62 19.49 0.6 19.45ZM4.31 20.08L4.36 20.14C4.36 20.12 4.36 20.1 4.36 20.09C4.34 20.09 4.33 20.09 4.31 20.08ZM17.37 1.52C16.76 1.54 16.17 1.55 15.58 1.56C13.83 1.58 12.14 1.61 10.45 1.84C8.81 2.09 7.65 2.72 6.87 3.64C6.09 4.58 5.65 5.89 5.6 7.59C5.56 8.72 5.56 9.85 5.57 10.99C5.57 11.63 5.58 12.27 5.57 12.93C5.57 13.16 5.57 13.39 5.53 13.59C5.5 13.79 5.42 14.02 5.23 14.22C5.04 14.41 4.81 14.49 4.6 14.53C4.41 14.56 4.18 14.57 3.95 14.57L1.65 14.57C1.65 14.73 1.65 14.88 1.65 15.04C1.65 16.35 1.64 17.6 1.67 18.84C1.68 18.84 1.69 18.85 1.7 18.85C2.2 18.89 2.7 18.88 3.23 18.88C3.41 18.87 3.6 18.87 3.8 18.87C4.07 18.87 4.33 18.87 4.54 18.9C4.75 18.93 5.02 19 5.24 19.21C5.45 19.43 5.52 19.71 5.54 19.92C5.57 20.13 5.57 20.39 5.57 20.67L5.57 38.06C5.57 38.16 5.58 38.26 5.58 38.36L11.26 38.36L11.26 20.5C11.26 20.27 11.26 20.04 11.29 19.85C11.32 19.66 11.39 19.41 11.59 19.21C11.79 19.01 12.04 18.95 12.23 18.92C12.42 18.89 12.65 18.89 12.88 18.89L16.78 18.89C16.86 18.23 16.94 17.58 17.01 16.93C17.11 16.12 17.21 15.31 17.3 14.5C16.91 14.49 16.53 14.49 16.15 14.49C14.99 14.49 13.89 14.49 12.78 14.5L12.78 14.5C12.42 14.5 12 14.44 11.69 14.14C11.36 13.83 11.29 13.4 11.3 13.01L11.3 13.01C11.31 12.31 11.31 11.61 11.3 10.9C11.3 10.53 11.3 10.17 11.3 9.8C11.3 8.68 11.52 7.75 12.15 7.1C12.79 6.46 13.71 6.23 14.8 6.23L17.37 6.23L17.37 1.52ZM0.63 19.94C0.63 19.94 0.63 19.94 0.62 19.94L0.63 19.94Z" fill="#000000" fill-opacity="1.000000" fill-rule="evenodd"/>
</svg>
