<svg width="45" height="45" viewBox="0 0 47 47" fill="none" xmlns="http://www.w3.org/2000/svg">
    <path
        d="M35.52 12.14H37.75M9.91 1H36.64C41.56 1 45.55 4.99 45.55 9.91V36.64C45.55 41.56 41.56 45.55 36.64 45.55H9.91C4.99 45.55 1 41.56 1 36.64V9.91C1 4.99 4.99 1 9.91 1ZM23.27 32.19C18.35 32.19 14.36 28.2 14.36 23.28C14.36 18.36 18.35 14.37 23.27 14.37C28.19 14.37 32.18 18.36 32.18 23.28C32.18 28.2 28.19 32.19 23.27 32.19Z"
        stroke="black" stroke-width="2" stroke-miterlimit="10" />
</svg>