<svg width="634" height="89" viewBox="0 0 634 89" fill="none" xmlns="http://www.w3.org/2000/svg">
<g clip-path="url(#clip0_2_169)">
<path d="M129.485 0C130.92 0 132.124 0 133.513 0C133.513 29.6667 133.513 59.2871 133.513 89C132.17 89 130.874 89 129.485 89C129.485 59.3796 129.485 29.8055 129.485 0Z" fill="black"/>
<path d="M366.465 89C365.123 89 363.919 89 362.53 89C362.53 59.3796 362.53 29.7592 362.53 0C363.827 0 365.077 0 366.465 0C366.465 29.6667 366.465 59.1945 366.465 89Z" fill="black"/>
<path d="M138.096 6.75714C139.485 6.75714 140.735 6.75714 142.309 6.75714C142.309 7.77534 142.309 8.74726 142.309 9.71918C142.309 32.7675 142.309 55.8159 142.309 78.8643C142.309 82.7057 142.309 82.7057 138.096 82.1503C138.096 57.1118 138.096 32.027 138.096 6.75714Z" fill="black"/>
<path d="M517.848 9.53406C519.237 9.53406 520.44 9.53406 521.829 9.53406C521.829 32.8138 521.829 56.0473 521.829 79.4659C520.533 79.4659 519.283 79.4659 517.848 79.4659C517.848 56.2324 517.848 32.999 517.848 9.53406Z" fill="black"/>
<path d="M371.049 9.58032C372.53 9.58032 373.78 9.58032 375.122 9.58032C375.122 32.8601 375.122 56.001 375.122 79.3734C373.826 79.3734 372.53 79.3734 371.049 79.3734C371.049 56.0936 371.049 32.9064 371.049 9.58032Z" fill="black"/>
<path d="M357.901 79.3734C356.466 79.3734 355.216 79.3734 353.827 79.3734C353.827 56.0473 353.827 32.8601 353.827 9.62665C355.262 9.62665 356.512 9.62665 357.901 9.62665C357.901 32.9064 357.901 56.0936 357.901 79.3734Z" fill="black"/>
<path d="M112.217 10.6448C113.606 10.6448 114.81 10.6448 116.199 10.6448C116.199 33.1841 116.199 55.6308 116.199 78.2626C114.902 78.2626 113.652 78.2626 112.217 78.2626C112.217 55.8159 112.217 33.3692 112.217 10.6448Z" fill="black"/>
<path d="M155.364 78.2626C155.364 55.7233 155.364 33.2766 155.364 10.6911C156.752 10.6911 158.002 10.6911 159.437 10.6911C159.437 33.2304 159.437 55.6771 159.437 78.2626C158.141 78.2626 156.891 78.2626 155.364 78.2626Z" fill="black"/>
<path d="M124.809 74.4675C123.467 74.4675 122.263 74.4675 120.874 74.4675C120.874 54.5663 120.874 34.7577 120.874 14.7177C122.124 14.7177 123.374 14.7177 124.809 14.7177C124.809 34.5263 124.809 54.3349 124.809 74.4675Z" fill="black"/>
<path d="M250.359 14.5325C251.656 14.5325 252.859 14.5325 254.248 14.5325C254.248 34.4799 254.248 54.3811 254.248 74.5138C253.091 74.5138 251.841 74.5138 250.359 74.5138C250.359 54.5663 250.359 34.6188 250.359 14.5325Z" fill="black"/>
<path d="M513.218 74.1898C511.737 74.1898 510.533 74.1898 509.191 74.1898C509.191 54.3812 509.191 34.7114 509.191 14.9028C510.58 14.9028 511.829 14.9028 513.218 14.9028C513.218 34.7114 513.218 54.3349 513.218 74.1898Z" fill="black"/>
<path d="M150.734 72.755C149.299 72.755 148.095 72.755 146.753 72.755C146.753 53.9183 146.753 35.2205 146.753 16.3375C148.003 16.3375 149.299 16.3375 150.734 16.3375C150.734 35.0816 150.734 53.872 150.734 72.755Z" fill="black"/>
<path d="M383.779 68.5434C382.298 68.5434 381.094 68.5434 379.706 68.5434C379.706 52.5299 379.706 36.6552 379.706 20.5954C381.048 20.5954 382.344 20.5954 383.779 20.5954C383.779 36.5626 383.779 52.4836 383.779 68.5434Z" fill="black"/>
<path d="M535.115 17.8648C536.551 17.8648 537.708 17.8648 539.05 17.8648C539.05 35.5908 539.05 53.2241 539.05 71.0427C537.754 71.0427 536.458 71.0427 535.115 71.0427C535.115 53.3167 535.115 35.6833 535.115 17.8648Z" fill="black"/>
<path d="M504.608 66.7384C503.08 66.7384 501.876 66.7384 500.534 66.7384C500.534 51.9745 500.534 37.2569 500.534 22.4004C501.876 22.4004 503.172 22.4004 504.608 22.4004C504.608 37.2106 504.608 51.8819 504.608 66.7384Z" fill="black"/>
<path d="M107.542 68.312C106.292 68.312 105.088 68.312 103.653 68.312C103.653 52.5299 103.653 36.7015 103.653 20.7343C104.903 20.7343 106.106 20.7343 107.542 20.7343C107.542 36.5164 107.542 52.3448 107.542 68.312Z" fill="black"/>
<path d="M526.412 21.012C527.801 21.012 529.005 21.012 530.393 21.012C530.393 36.6552 530.393 52.2522 530.393 67.988C529.097 67.988 527.847 67.988 526.412 67.988C526.412 52.3911 526.412 36.8404 526.412 21.012Z" fill="black"/>
<path d="M340.633 67.8029C339.244 67.8029 337.994 67.8029 336.606 67.8029C336.606 52.2522 336.606 36.7941 336.606 21.1971C337.994 21.1971 339.244 21.1971 340.633 21.1971C340.633 36.7941 340.633 52.2059 340.633 67.8029Z" fill="black"/>
<path d="M349.244 66.3682C347.855 66.3682 346.698 66.3682 345.309 66.3682C345.309 51.8357 345.309 37.3494 345.309 22.6781C346.559 22.6781 347.855 22.6781 349.244 22.6781C349.244 37.2569 349.244 51.6968 349.244 66.3682Z" fill="black"/>
<path d="M582.15 66.2756C580.808 66.2756 579.604 66.2756 578.215 66.2756C578.215 51.7894 578.215 37.3957 578.215 22.817C579.419 22.817 580.669 22.817 582.15 22.817C582.15 37.2106 582.15 51.6505 582.15 66.2756Z" fill="black"/>
<path d="M241.656 65.8591C241.656 51.5117 241.656 37.3495 241.656 23.0947C242.999 23.0947 244.202 23.0947 245.591 23.0947C245.591 37.3032 245.591 51.5117 245.591 65.8591C244.387 65.8591 243.091 65.8591 241.656 65.8591Z" fill="black"/>
<path d="M331.976 63.545C330.541 63.545 329.291 63.545 327.902 63.545C327.902 50.8175 327.902 38.1825 327.902 25.4088C329.245 25.4088 330.495 25.4088 331.976 25.4088C331.976 38.0437 331.976 50.6786 331.976 63.545Z" fill="black"/>
<path d="M547.846 25.8253C547.846 38.4139 547.846 50.6786 547.846 63.1747C546.458 63.1747 545.208 63.1747 543.726 63.1747C543.726 50.7249 543.726 38.3214 543.726 25.8253C545.069 25.8253 546.365 25.8253 547.846 25.8253Z" fill="black"/>
<path d="M397.02 25.9178C398.408 25.9178 399.612 25.9178 401.001 25.9178C401.001 38.2751 401.001 50.5398 401.001 62.9896C399.705 62.9896 398.455 62.9896 397.02 62.9896C397.02 50.7249 397.02 38.4602 397.02 25.9178Z" fill="black"/>
<path d="M258.924 26.4269C260.405 26.4269 261.655 26.4269 263.044 26.4269C263.044 38.5528 263.044 50.5398 263.044 62.6194C261.609 62.6194 260.359 62.6194 258.924 62.6194C258.924 50.5861 258.924 38.5991 258.924 26.4269Z" fill="black"/>
<path d="M55.8309 63.4524C54.3958 63.4524 53.2847 63.4524 51.9422 63.4524C51.9422 50.9101 51.9422 38.414 51.9422 25.7327C53.1921 25.7327 54.4421 25.7327 55.8309 25.7327C55.8309 38.2751 55.8309 50.7712 55.8309 63.4524Z" fill="black"/>
<path d="M573.632 61.092C572.243 61.092 570.947 61.092 569.512 61.092C569.512 50.0307 569.512 39.0619 569.512 27.9542C570.901 27.9542 572.197 27.9542 573.632 27.9542C573.632 39.0156 573.632 49.9844 573.632 61.092Z" fill="black"/>
<path d="M224.527 27.0749C225.87 27.0749 227.073 27.0749 228.416 27.0749C228.416 38.7379 228.416 50.3084 228.416 61.9714C227.12 61.9714 225.916 61.9714 224.527 61.9714C224.527 50.4472 224.527 38.8768 224.527 27.0749Z" fill="black"/>
<path d="M392.344 59.8424C391.001 59.8424 389.798 59.8424 388.409 59.8424C388.409 49.7067 388.409 39.6172 388.409 29.2964C389.613 29.2964 390.863 29.2964 392.344 29.2964C392.344 39.3858 392.344 49.4753 392.344 59.8424Z" fill="black"/>
<path d="M163.974 29.2039C165.363 29.2039 166.567 29.2039 168.002 29.2039C168.002 39.3396 168.002 49.429 168.002 59.7036C166.752 59.7036 165.456 59.7036 163.974 59.7036C163.974 49.6142 163.974 39.571 163.974 29.2039Z" fill="black"/>
<path d="M487.293 59.8424C485.951 59.8424 484.747 59.8424 483.358 59.8424C483.358 49.6604 483.358 39.571 483.358 29.2964C484.608 29.2964 485.858 29.2964 487.293 29.2964C487.293 39.3395 487.293 49.4753 487.293 59.8424Z" fill="black"/>
<path d="M47.2201 58.3614C45.6924 58.3614 44.4888 58.3614 43.1462 58.3614C43.1462 49.1513 43.1462 39.9875 43.1462 30.7774C44.5351 30.7774 45.8313 30.7774 47.2201 30.7774C47.2201 39.9412 47.2201 49.0587 47.2201 58.3614Z" fill="black"/>
<path d="M491.923 30.8237C493.358 30.8237 494.608 30.8237 495.951 30.8237C495.951 39.9875 495.951 49.0125 495.951 58.2226C494.654 58.2226 493.358 58.2226 491.923 58.2226C491.923 49.1051 491.923 40.0338 491.923 30.8237Z" fill="black"/>
<path d="M590.854 58.4077C589.511 58.4077 588.354 58.4077 586.965 58.4077C586.965 49.2439 586.965 40.1264 586.965 30.8237C588.169 30.8237 589.419 30.8237 590.854 30.8237C590.854 39.9875 590.854 49.1513 590.854 58.4077Z" fill="black"/>
<path d="M237.073 56.0473C235.684 56.0473 234.434 56.0473 232.999 56.0473C232.999 48.3183 232.999 40.728 232.999 32.999C234.342 32.999 235.592 32.999 237.073 32.999C237.073 40.728 237.073 48.3645 237.073 56.0473Z" fill="black"/>
<path d="M60.4141 33.2767C61.8492 33.2767 63.0528 33.2767 64.4417 33.2767C64.4417 40.7743 64.4417 48.1794 64.4417 55.6771C63.0991 55.6771 61.8029 55.6771 60.4141 55.6771C60.4141 48.2257 60.4141 40.9132 60.4141 33.2767Z" fill="black"/>
<path d="M219.759 56.9267C218.324 56.9267 217.12 56.9267 215.778 56.9267C215.778 48.6885 215.778 40.5429 215.778 32.2584C217.028 32.2584 218.324 32.2584 219.759 32.2584C219.759 40.3577 219.759 48.5496 219.759 56.9267Z" fill="black"/>
<path d="M556.365 56.6953C554.883 56.6953 553.679 56.6953 552.337 56.6953C552.337 48.5034 552.337 40.4966 552.337 32.3047C553.726 32.3047 554.976 32.3047 556.365 32.3047C556.365 40.4966 556.365 48.5034 556.365 56.6953Z" fill="black"/>
<path d="M98.9772 32.3973C98.9772 40.5429 98.9772 48.5496 98.9772 56.649C97.5884 56.649 96.3384 56.649 94.9496 56.649C94.9496 48.5496 94.9496 40.5429 94.9496 32.3973C96.2458 32.3973 97.4958 32.3973 98.9772 32.3973Z" fill="black"/>
<path d="M418.361 32.7213C418.361 40.6354 418.361 48.4108 418.361 56.325C417.019 56.325 415.769 56.325 414.334 56.325C414.334 48.4571 414.334 40.6817 414.334 32.7213C415.584 32.7213 416.834 32.7213 418.361 32.7213Z" fill="black"/>
<path d="M478.683 34.7577C478.683 41.2834 478.683 47.7629 478.683 54.2886C477.294 54.2886 475.998 54.2886 474.609 54.2886C474.609 47.7629 474.609 41.3297 474.609 34.7577C475.998 34.7577 477.248 34.7577 478.683 34.7577Z" fill="black"/>
<path d="M267.627 33.9709C268.923 33.9709 270.127 33.9709 271.516 33.9709C271.516 41.0057 271.516 47.948 271.516 55.0754C270.22 55.0754 269.016 55.0754 267.627 55.0754C267.627 48.1794 267.627 41.1909 267.627 33.9709Z" fill="black"/>
<path d="M34.5818 34.5262C36.017 34.5262 37.2206 34.5262 38.5632 34.5262C38.5632 41.1908 38.5632 47.7629 38.5632 54.4737C37.2669 54.4737 36.017 54.4737 34.5818 54.4737C34.5818 47.8554 34.5818 41.3297 34.5818 34.5262Z" fill="black"/>
<path d="M176.613 54.2886C175.27 54.2886 174.066 54.2886 172.678 54.2886C172.678 47.8092 172.678 41.4223 172.678 34.7577C173.928 34.7577 175.178 34.7577 176.613 34.7577C176.613 41.1909 176.613 47.624 176.613 54.2886Z" fill="black"/>
<path d="M405.584 54.2886C405.584 47.7166 405.584 41.2834 405.584 34.6651C406.973 34.6651 408.223 34.6651 409.612 34.6651C409.612 41.2371 409.612 47.6703 409.612 54.2886C408.362 54.2886 407.112 54.2886 405.584 54.2886Z" fill="black"/>
<path d="M90.4127 35.961C90.4127 41.6999 90.4127 47.3001 90.4127 52.9464C90.0424 53.039 89.7646 53.1779 89.4405 53.1779C86.1074 53.4093 86.1074 53.4093 86.1074 50.1232C86.1074 45.4488 86.1074 40.7743 86.1074 35.961C87.6351 35.961 88.9313 35.961 90.4127 35.961Z" fill="black"/>
<path d="M319.338 35.0817C320.819 35.0817 322.023 35.0817 323.365 35.0817C323.365 41.376 323.365 47.5778 323.365 53.8721C321.977 53.8721 320.727 53.8721 319.338 53.8721C319.338 47.5778 319.338 41.4223 319.338 35.0817Z" fill="black"/>
<path d="M561.04 35.3593C562.337 35.3593 563.54 35.3593 564.929 35.3593C564.929 41.376 564.929 47.3926 564.929 53.5944C563.772 53.5944 562.522 53.5944 561.04 53.5944C561.04 47.7166 561.04 41.6999 561.04 35.3593Z" fill="black"/>
<path d="M422.852 37.2106C424.287 37.2106 425.583 37.2106 426.972 37.2106C426.972 42.1628 426.972 46.9761 426.972 51.882C425.583 51.882 424.333 51.882 422.852 51.882C422.852 47.0687 422.852 42.2554 422.852 37.2106Z" fill="black"/>
<path d="M207.074 51.0026C207.074 46.5595 207.074 42.3942 207.074 37.9974C208.463 37.9974 209.713 37.9974 211.194 37.9974C211.194 42.3479 211.194 46.6058 211.194 51.0026C209.852 51.0026 208.602 51.0026 207.074 51.0026Z" fill="black"/>
<path d="M599.511 51.0026C598.076 51.0026 596.872 51.0026 595.344 51.0026C595.344 46.9298 595.298 42.9496 595.391 38.9693C595.391 38.6454 596.131 38.09 596.594 37.9974C597.474 37.8586 598.4 37.9511 599.511 37.9511C599.511 42.3479 599.511 46.5595 599.511 51.0026Z" fill="black"/>
<path d="M284.802 50.6323C284.802 46.467 284.802 42.4405 284.802 38.2751C286.191 38.2751 287.441 38.2751 288.876 38.2751C288.876 42.3942 288.876 46.4207 288.876 50.6323C287.487 50.6323 286.237 50.6323 284.802 50.6323Z" fill="black"/>
<path d="M314.662 50.7712C313.273 50.7712 312.07 50.7712 310.727 50.7712C310.727 46.6521 310.727 42.6256 310.727 38.4139C311.931 38.4139 313.181 38.4139 314.662 38.4139C314.662 42.3942 314.662 46.5133 314.662 50.7712Z" fill="black"/>
<path d="M81.7557 50.077C80.3669 50.077 79.1169 50.077 77.7281 50.077C77.7281 46.3281 77.7281 42.6719 77.7281 38.923C79.1169 38.923 80.3669 38.923 81.7557 38.923C81.7557 42.7181 81.7557 46.3281 81.7557 50.077Z" fill="black"/>
<path d="M181.242 49.429C181.242 46.0504 181.242 42.857 181.242 39.6172C182.631 39.6172 183.927 39.6172 185.316 39.6172C185.316 42.9033 185.316 46.0967 185.316 49.429C183.973 49.429 182.723 49.429 181.242 49.429Z" fill="black"/>
<path d="M21.4343 39.7098C21.4343 43.0421 21.4343 46.0042 21.4343 49.1513C20.0455 49.1513 18.7029 49.1513 17.1752 49.1513C17.1752 46.3744 17.1289 43.5975 17.2215 40.8669C17.2215 40.4503 18.0085 39.8487 18.4714 39.7561C19.351 39.571 20.2769 39.7098 21.4343 39.7098Z" fill="black"/>
<path d="M69.071 39.3396C70.4599 39.3396 71.6172 39.3396 73.0524 39.3396C73.0524 42.8107 73.0524 46.1893 73.0524 49.6605C71.7561 49.6605 70.5062 49.6605 69.071 49.6605C69.071 46.2356 69.071 42.9033 69.071 39.3396Z" fill="black"/>
<path d="M466.137 39.6636C467.526 39.6636 468.73 39.6636 470.072 39.6636C470.072 42.9959 470.072 46.1893 470.072 49.4753C468.776 49.4753 467.572 49.4753 466.137 49.4753C466.137 46.2356 466.137 42.9959 466.137 39.6636Z" fill="black"/>
<path d="M29.8598 48.5959C28.5173 48.5959 27.3136 48.5959 25.9248 48.5959C25.9248 45.8653 25.9248 43.2272 25.9248 40.4503C27.221 40.4503 28.4247 40.4503 29.8598 40.4503C29.8598 43.0884 29.8598 45.7264 29.8598 48.5959Z" fill="black"/>
<path d="M280.173 48.272C278.923 48.272 277.719 48.272 276.284 48.272C276.284 45.819 276.284 43.3198 276.284 40.728C277.534 40.728 278.738 40.728 280.173 40.728C280.173 43.181 280.173 45.6802 280.173 48.272Z" fill="black"/>
<path d="M604.14 40.8206C605.483 40.8206 606.733 40.8206 608.121 40.8206C608.121 43.2736 608.121 45.6339 608.121 48.1794C606.825 48.1794 605.575 48.1794 604.14 48.1794C604.14 45.7728 604.14 43.3661 604.14 40.8206Z" fill="black"/>
<path d="M431.463 48.1331C431.463 45.7265 431.463 43.4587 431.463 41.052C432.805 41.052 434.055 41.052 435.49 41.052C435.49 43.4124 435.49 45.7265 435.49 48.1331C434.148 48.1331 432.99 48.1331 431.463 48.1331Z" fill="black"/>
<path d="M621.408 41.9313C622.797 41.9313 624 41.9313 625.389 41.9313C625.389 43.6438 625.389 45.3099 625.389 47.1149C624.093 47.1149 622.843 47.1149 621.408 47.1149C621.408 45.4488 621.408 43.8289 621.408 41.9313Z" fill="black"/>
<path d="M444.194 47.2538C442.758 47.2538 441.555 47.2538 440.212 47.2538C440.212 45.4488 440.212 43.7363 440.212 41.8851C441.555 41.8851 442.805 41.8851 444.194 41.8851C444.194 43.6901 444.194 45.3099 444.194 47.2538Z" fill="black"/>
<path d="M12.6846 47.1149C11.2958 47.1149 10.0922 47.1149 8.74963 47.1149C8.74963 45.3562 8.74963 43.7364 8.74963 41.9777C10.0459 41.9777 11.2958 41.9777 12.6846 41.9777C12.6846 43.6901 12.6846 45.31 12.6846 47.1149Z" fill="black"/>
<path d="M297.394 46.9761C296.052 46.9761 294.802 46.9761 293.459 46.9761C293.459 45.2637 293.459 43.6901 293.459 42.0239C294.802 42.0239 296.006 42.0239 297.394 42.0239C297.394 43.5975 297.394 45.1248 297.394 46.9761Z" fill="black"/>
<path d="M461.415 46.791C459.934 46.791 458.73 46.791 457.434 46.791C457.434 45.2637 457.434 43.8289 457.434 42.3016C458.776 42.3016 460.026 42.3016 461.415 42.3016C461.415 43.8289 461.415 45.2174 461.415 46.791Z" fill="black"/>
<path d="M193.88 46.791C192.399 46.791 191.195 46.791 189.853 46.791C189.853 45.2637 189.853 43.8752 189.853 42.3016C191.195 42.3016 192.445 42.3016 193.88 42.3016C193.88 43.7827 193.88 45.2174 193.88 46.791Z" fill="black"/>
<path d="M306.144 46.467C304.709 46.467 303.505 46.467 302.116 46.467C302.116 45.2174 302.116 44.0141 302.116 42.6256C303.366 42.6256 304.709 42.6256 306.144 42.6256C306.144 43.8752 306.144 45.0323 306.144 46.467Z" fill="black"/>
<path d="M612.751 42.9496C614.14 42.9496 615.343 42.9496 616.732 42.9496C616.732 43.9678 616.732 44.8934 616.732 45.9579C615.436 45.9579 614.186 45.9579 612.751 45.9579C612.751 45.0323 612.751 44.1066 612.751 42.9496Z" fill="black"/>
<path d="M448.684 45.7264C448.684 44.8934 448.684 44.2454 448.684 43.4124C450.027 43.4124 451.369 43.4124 452.851 43.4124C452.851 44.1529 452.851 44.8934 452.851 45.7264C451.462 45.7264 450.212 45.7264 448.684 45.7264Z" fill="black"/>
<path d="M634 45.6802C632.611 45.6802 631.361 45.6802 630.019 45.6802C629.972 44.8934 629.926 44.1992 629.88 43.3661C631.269 43.3661 632.565 43.3661 634 43.3661C634 44.1529 634 44.8934 634 45.6802Z" fill="black"/>
<path d="M202.584 43.3661C202.584 44.1066 202.584 44.8008 202.584 45.6339C201.241 45.6339 199.899 45.6339 198.51 45.6339C198.51 44.8471 198.51 44.1992 198.51 43.3661C199.76 43.3661 201.056 43.3661 202.584 43.3661Z" fill="black"/>
<path d="M4.07391 43.3661C4.07391 44.1529 4.07391 44.8009 4.07391 45.6802C2.73137 45.6802 1.48143 45.6802 0.185188 45.6802C-0.231461 43.0421 -0.231461 43.0421 4.07391 43.3661Z" fill="black"/>
</g>
<defs>
<clipPath id="clip0_2_169">
<rect width="634" height="89" fill="white"/>
</clipPath>
</defs>
</svg>
