<svg width="66" height="47" viewBox="0 0 66 47" fill="none" xmlns="http://www.w3.org/2000/svg">
    <path fill-rule="evenodd" clip-rule="evenodd"
        d="M0 9.91C0 4.43772 4.43772 0 9.91 0H55.23C60.7023 0 65.14 4.43772 65.14 9.91V36.64C65.14 42.1123 60.7023 46.55 55.23 46.55H9.91C4.43772 46.55 0 42.1123 0 36.64V9.91ZM9.91 2C5.54228 2 2 5.54228 2 9.91V36.64C2 41.0077 5.54228 44.55 9.91 44.55H55.23C59.5977 44.55 63.14 41.0077 63.14 36.64V9.91C63.14 5.54228 59.5977 2 55.23 2H9.91Z"
        fill="black" />
    <path fill-rule="evenodd" clip-rule="evenodd"
        d="M26.35 13.2191L43.782 23.27L26.35 33.3209V13.2191ZM28.35 16.6809V29.8591L39.778 23.27L28.35 16.6809Z"
        fill="black" />
</svg>